<mxfile host="app.diagrams.net" agent="Mozilla/5.0 (Windows NT 10.0; Win64; x64) AppleWebKit/537.36 (KHTML, like Gecko) Chrome/134.0.0.0 Safari/537.36" version="26.1.3">
  <diagram name="Page-1" id="ZSVnLYaPisJ-L3LaeQyS">
    <mxGraphModel dx="794" dy="452" grid="1" gridSize="10" guides="1" tooltips="1" connect="1" arrows="1" fold="1" page="1" pageScale="1" pageWidth="827" pageHeight="1169" math="0" shadow="0">
      <root>
        <mxCell id="0" />
        <mxCell id="1" parent="0" />
        <mxCell id="7P4M7pMutVrMYfom8Spt-1" value="" style="ellipse;whiteSpace=wrap;html=1;aspect=fixed;" vertex="1" parent="1">
          <mxGeometry x="280" y="100" width="160" height="160" as="geometry" />
        </mxCell>
        <mxCell id="7P4M7pMutVrMYfom8Spt-2" value="" style="shape=cylinder3;whiteSpace=wrap;html=1;boundedLbl=1;backgroundOutline=1;size=15;" vertex="1" parent="1">
          <mxGeometry x="330" y="103.33" width="60" height="79.99" as="geometry" />
        </mxCell>
        <mxCell id="7P4M7pMutVrMYfom8Spt-3" value="" style="ellipse;whiteSpace=wrap;html=1;aspect=fixed;" vertex="1" parent="1">
          <mxGeometry x="290" y="320" width="40" height="40" as="geometry" />
        </mxCell>
        <mxCell id="7P4M7pMutVrMYfom8Spt-4" value="Server" style="text;html=1;align=center;verticalAlign=middle;whiteSpace=wrap;rounded=0;" vertex="1" parent="1">
          <mxGeometry x="330" y="190" width="60" height="30" as="geometry" />
        </mxCell>
        <mxCell id="7P4M7pMutVrMYfom8Spt-5" value="" style="endArrow=classic;startArrow=classic;html=1;rounded=0;" edge="1" parent="1" source="7P4M7pMutVrMYfom8Spt-3" target="7P4M7pMutVrMYfom8Spt-1">
          <mxGeometry width="50" height="50" relative="1" as="geometry">
            <mxPoint x="120" y="250" as="sourcePoint" />
            <mxPoint x="170" y="200" as="targetPoint" />
          </mxGeometry>
        </mxCell>
        <mxCell id="7P4M7pMutVrMYfom8Spt-7" value="" style="endArrow=classic;startArrow=classic;html=1;rounded=0;" edge="1" parent="1" target="7P4M7pMutVrMYfom8Spt-1">
          <mxGeometry width="50" height="50" relative="1" as="geometry">
            <mxPoint x="360" y="320" as="sourcePoint" />
            <mxPoint x="362.21870832014383" y="216.16344882723502" as="targetPoint" />
          </mxGeometry>
        </mxCell>
        <mxCell id="7P4M7pMutVrMYfom8Spt-8" value="" style="ellipse;whiteSpace=wrap;html=1;aspect=fixed;" vertex="1" parent="1">
          <mxGeometry x="390" y="320" width="40" height="40" as="geometry" />
        </mxCell>
        <mxCell id="7P4M7pMutVrMYfom8Spt-9" value="" style="endArrow=classic;startArrow=classic;html=1;rounded=0;" edge="1" parent="1" source="7P4M7pMutVrMYfom8Spt-8" target="7P4M7pMutVrMYfom8Spt-1">
          <mxGeometry width="50" height="50" relative="1" as="geometry">
            <mxPoint x="594" y="378" as="sourcePoint" />
            <mxPoint x="563" y="280" as="targetPoint" />
          </mxGeometry>
        </mxCell>
        <mxCell id="7P4M7pMutVrMYfom8Spt-10" value="Client" style="text;html=1;align=center;verticalAlign=middle;whiteSpace=wrap;rounded=0;" vertex="1" parent="1">
          <mxGeometry x="280" y="325" width="60" height="30" as="geometry" />
        </mxCell>
        <mxCell id="7P4M7pMutVrMYfom8Spt-11" value="Client" style="text;html=1;align=center;verticalAlign=middle;whiteSpace=wrap;rounded=0;" vertex="1" parent="1">
          <mxGeometry x="380" y="325" width="60" height="30" as="geometry" />
        </mxCell>
        <mxCell id="7P4M7pMutVrMYfom8Spt-12" value="...." style="text;html=1;align=center;verticalAlign=middle;whiteSpace=wrap;rounded=0;" vertex="1" parent="1">
          <mxGeometry x="330" y="325" width="60" height="30" as="geometry" />
        </mxCell>
      </root>
    </mxGraphModel>
  </diagram>
</mxfile>
